<!DOCTYPE svg PUBLIC "-//W3C//DTD SVG 1.1//EN" "http://www.w3.org/Graphics/SVG/1.1/DTD/svg11.dtd">
<!-- Uploaded to: SVG Repo, www.svgrepo.com, Transformed by: SVG Repo Mixer Tools -->
<svg height="800px" width="800px" version="1.1" id="Layer_1" xmlns="http://www.w3.org/2000/svg" xmlns:xlink="http://www.w3.org/1999/xlink" viewBox="0 0 512 512" xml:space="preserve" fill="#000000">
<g id="SVGRepo_bgCarrier" stroke-width="0"/>
<g id="SVGRepo_tracerCarrier" stroke-linecap="round" stroke-linejoin="round"/>
<g id="SVGRepo_iconCarrier"> <path style="fill:#cccccc;" d="M422.112,431.304H89.889c-24.588,0-44.522-19.933-44.522-44.522V125.217 c0-24.588,19.933-44.522,44.522-44.522h332.223c24.588,0,44.522,19.933,44.522,44.522v261.565 C466.634,411.371,446.7,431.304,422.112,431.304z"/> <path style="fill:#787878;" d="M507.025,269.281l-40.391-17.356V139.416L287.836,248.233c-16.899,10.285-38.116,10.36-55.089,0.197 L45.367,136.214v152.505l-2.323,0.681c-30.937,8.339-49.351,40.239-41.055,71.165c6.048,22.542,24.648,38.439,46.28,42.218 c6.363,16.672,22.512,28.522,41.441,28.522h332.578c24.49,0,44.344-19.828,44.344-44.287v-65.404l0.814,3.032 c0.301,1.12,1.152,2.042,2.369,2.564c2.533,1.089,5.924,0.181,7.572-2.027l32.839-43.966 C513.524,276.802,512.091,271.458,507.025,269.281z M18.053,356.266c-5.744-21.412,6.436-43.477,27.314-50.235v78.956 C32.442,380.77,21.826,370.332,18.053,356.266z"/> <path style="fill:#f2f2f2;" d="M414.97,336.995c1.189,4.43-1.445,8.983-5.88,10.17l-107.081,28.656 c-0.72,0.193-1.445,0.285-2.157,0.285c-3.671,0-7.03-2.446-8.026-6.157c-1.188-4.43,1.444-8.983,5.88-10.17l107.081-28.656 C409.22,329.938,413.781,332.565,414.97,336.995z M265.579,368.376l-1.071,0.286c-4.435,1.188-7.068,5.74-5.88,10.17 c0.995,3.71,4.355,6.157,8.026,6.157c0.712,0,1.437-0.092,2.157-0.285l1.071-0.286c4.435-1.188,7.068-5.74,5.88-10.17 C274.574,369.819,270.014,367.191,265.579,368.376z M331.976,293.223c0.712,0,1.437-0.092,2.157-0.285l74.958-20.059 c4.435-1.188,7.068-5.74,5.88-10.17c-1.189-4.43-5.75-7.056-10.183-5.872l-74.958,20.059c-4.435,1.188-7.068,5.74-5.88,10.17 C324.945,290.776,328.304,293.223,331.976,293.223z M257.018,313.283c0.712,0,1.437-0.092,2.157-0.285l1.071-0.286 c4.435-1.188,7.068-5.74,5.88-10.17c-1.189-4.43-5.749-7.057-10.183-5.872l-1.071,0.286c-4.435,1.188-7.068,5.74-5.88,10.17 C249.988,310.836,253.347,313.283,257.018,313.283z M298.779,302.107c0.712,0,1.436-0.092,2.157-0.285l1.071-0.286 c4.435-1.186,7.068-5.739,5.88-10.17c-1.188-4.43-5.748-7.059-10.182-5.872l-1.071,0.286c-4.435,1.186-7.068,5.739-5.88,10.17 C291.748,299.659,295.108,302.107,298.779,302.107z M507.025,269.281l-50.451-21.678c-2.533-1.089-5.923-0.181-7.572,2.026 c-0.791,1.06-1.067,2.284-0.768,3.404l7.512,28.001L74.323,384.191l-5.354,1.432c-22.147,5.929-44.984-7.246-50.916-29.359 c-5.744-21.412,6.436-43.477,27.314-50.235v-17.311l-2.323,0.681c-30.937,8.339-49.351,40.239-41.055,71.165 c6.96,25.939,30.536,43.089,56.232,43.089c4.971,0,10.024-0.642,15.049-1.987l5.376-1.438l381.402-103.152l7.397,27.57 c0.301,1.12,1.152,2.042,2.369,2.564c2.533,1.089,5.924,0.181,7.572-2.027l32.839-43.966 C513.524,276.802,512.091,271.458,507.025,269.281z"/> </g>
</svg>